<svg xmlns="http://www.w3.org/2000/svg" viewBox="0 0 64 64" width="64" height="64">
  <rect x="2" y="2" width="60" height="60" rx="14" fill="#0b6e4f" />
  <rect x="2" y="2" width="60" height="60" rx="14" fill="url(#felt-shine)" />
  <defs>
    <linearGradient id="felt-shine" x1="0" y1="0" x2="0" y2="1">
      <stop offset="0" stop-color="#ffffff" stop-opacity="0.10" />
      <stop offset="1" stop-color="#ffffff" stop-opacity="0" />
    </linearGradient>
  </defs>

  <!-- game controller body -->
  <path
    d="M16 30c0-4.4 3.6-8 8-8h16c4.4 0 8 3.6 8 8v6c0 3.9-3.1 7-7 7-2.1 0-4-1-5.2-2.6l-1.6-2.1a2.7 2.7 0 0 0-2.1-1.1h-4.2c-.8 0-1.6.4-2.1 1.1l-1.6 2.1A6.9 6.9 0 0 1 23 43c-3.9 0-7-3.1-7-7v-6z"
    fill="#fdfdfb"
  />

  <!-- d-pad -->
  <rect x="21.5" y="28.5" width="3" height="9" rx="1" fill="#1a1a1a" />
  <rect x="18.5" y="31.5" width="9" height="3" rx="1" fill="#1a1a1a" />

  <!-- action buttons -->
  <circle cx="40" cy="29" r="2.3" fill="#d92d2d" />
  <circle cx="44.5" cy="33.5" r="2.3" fill="#1e3a5f" />
</svg>
